<svg xmlns="http://www.w3.org/2000/svg" xmlns:xlink="http://www.w3.org/1999/xlink" width="60" height="60" viewBox="0 0 60 60"><defs><style>.a{fill:#475993;}.b{filter:url(#a);}</style><filter id="a" x="0" y="0" width="60" height="60" filterUnits="userSpaceOnUse"><feOffset dy="1" input="SourceAlpha"/><feGaussianBlur stdDeviation="1" result="b"/><feFlood flood-opacity="0.161"/><feComposite operator="in" in2="b"/><feComposite in="SourceGraphic"/></filter></defs><g class="b" transform="matrix(1, 0, 0, 1, 0, 0)"><path class="a" d="M46.725,0H7.279A7.277,7.277,0,0,0,0,7.277V46.723A7.277,7.277,0,0,0,7.279,54H26.734l.033-19.3H21.753a1.183,1.183,0,0,1-1.183-1.178l-.024-6.22a1.183,1.183,0,0,1,1.183-1.187h5v-6.01c0-6.975,4.26-10.773,10.482-10.773h5.106A1.183,1.183,0,0,1,43.5,10.518v5.245a1.183,1.183,0,0,1-1.182,1.183H39.188c-3.384,0-4.039,1.608-4.039,3.968v5.2h7.435a1.183,1.183,0,0,1,1.175,1.322l-.737,6.22A1.183,1.183,0,0,1,41.847,34.7H35.183L35.15,54H46.725A7.277,7.277,0,0,0,54,46.724V7.277A7.277,7.277,0,0,0,46.725,0Z" transform="translate(3 2)"/></g></svg>