<svg xmlns="http://www.w3.org/2000/svg" width="36.564" height="36.564" viewBox="0 0 36.564 36.564"><defs><style>.a{fill:#fbbb00;}.b{fill:#518ef8;}.c{fill:#28b446;}.d{fill:#f14336;}</style></defs><path class="a" d="M8.1,150.49l-1.273,4.751-4.652.1a18.314,18.314,0,0,1-.135-17.072h0l4.141.759L8,143.144a10.911,10.911,0,0,0,.1,7.346Z" transform="translate(0 -128.394)"/><path class="b" d="M279.189,208.176a18.275,18.275,0,0,1-6.517,17.672h0l-5.216-.266-.738-4.609a10.9,10.9,0,0,0,4.688-5.564h-9.776v-7.233h17.561Z" transform="translate(-242.944 -193.309)"/><path class="c" d="M58.057,319.851h0a18.288,18.288,0,0,1-27.549-5.593l5.925-4.85A10.873,10.873,0,0,0,52.1,314.976Z" transform="translate(-28.33 -287.313)"/><path class="d" d="M56.532,4.209,50.609,9.058A10.872,10.872,0,0,0,34.581,14.75L28.625,9.874h0A18.286,18.286,0,0,1,56.532,4.209Z" transform="translate(-26.58)"/></svg>